<svg version="1.1" xmlns="http://www.w3.org/2000/svg" viewBox="0 0 654.6297916192593 143.78901166257714" width="654.6297916192593" height="143.78901166257714">
  <!-- svg-source:excalidraw -->
  
  <defs>
    <style>
      @font-face {
        font-family: "Virgil";
        src: url("https://excalidraw.com/Virgil.woff2");
      }
      @font-face {
        font-family: "Cascadia";
        src: url("https://excalidraw.com/Cascadia.woff2");
      }
    </style>
  </defs>
  <rect x="0" y="0" width="654.6297916192593" height="143.78901166257714" fill="#ffffff"></rect><g stroke-linecap="round"><g transform="translate(11.28366077439182 18.770926623634182) rotate(0 38.326078466427134 41.971151821990475)" fill-rule="evenodd"><path d="M-1.12 -0.19 L-0.7 85.12 L0.7 84.75 L17.39 91.22 L40.43 91.29 L63.57 88.44 L74.71 86.21 L78.2 0.4 L67.43 -4.01 L37.51 -5.98 L10.23 -3.67 L1.58 -3.45 L-0.89 -0.48" stroke="none" stroke-width="0" fill="#ced4da" fill-rule="evenodd"></path><path d="M0.19 0.2 C-0.03 12.9, -1.06 62.09, -0.9 76.08 C-0.73 90.06, 0.46 82.13, 1.2 84.11 C1.94 86.08, 0.66 86.87, 3.53 87.93 C6.4 89, 12.05 89.84, 18.42 90.5 C24.79 91.16, 34.26 92.06, 41.76 91.88 C49.27 91.7, 57.82 90.41, 63.44 89.41 C69.06 88.41, 73.37 86.74, 75.47 85.87 C77.56 85.01, 75.77 85.68, 76.01 84.23 C76.25 82.77, 76.92 90.07, 76.9 77.17 C76.88 64.28, 75.88 19.81, 75.89 6.84 C75.9 -6.12, 77.89 1.26, 76.97 -0.61 C76.04 -2.48, 73 -3.35, 70.32 -4.39 C67.63 -5.42, 66.46 -6.36, 60.87 -6.81 C55.28 -7.26, 43.9 -7.25, 36.77 -7.1 C29.64 -6.95, 23.71 -6.76, 18.09 -5.92 C12.47 -5.08, 6.26 -2.97, 3.04 -2.09 C-0.17 -1.2, -0.72 -1, -1.2 -0.59 C-1.68 -0.19, 0 0.35, 0.18 0.33 M-1.16 -0.74 C-1.08 11.65, 0.84 60.67, 1.21 74.46 C1.58 88.25, 0.67 80.13, 1.06 82 C1.44 83.87, 0.83 84.19, 3.54 85.68 C6.25 87.16, 11.24 90, 17.31 90.9 C23.37 91.8, 32.1 90.97, 39.91 91.07 C47.72 91.16, 58.4 92.42, 64.19 91.47 C69.98 90.52, 72.42 86.71, 74.66 85.37 C76.9 84.04, 77.12 84.81, 77.62 83.46 C78.12 82.11, 77.96 89.81, 77.65 77.25 C77.33 64.69, 76.04 21.19, 75.74 8.11 C75.45 -4.96, 76.83 1.06, 75.87 -1.19 C74.91 -3.45, 72.6 -4.39, 69.97 -5.42 C67.34 -6.45, 65.62 -7.06, 60.09 -7.36 C54.57 -7.66, 43.67 -7.15, 36.83 -7.23 C29.98 -7.31, 24.89 -8.31, 19.03 -7.84 C13.17 -7.37, 4.73 -5.62, 1.66 -4.4 C-1.42 -3.18, 1.02 -1.37, 0.56 -0.51 C0.1 0.35, -1.06 0.55, -1.11 0.76" stroke="#000000" stroke-width="1" fill="none"></path></g></g><g stroke-linecap="round" transform="translate(10.789993032451775 10) rotate(0 38.252112724462336 7.736202016062123)"><path d="M55.29 0.78 C62.29 1.26, 70.15 2.97, 73.25 4.58 C76.35 6.2, 76.44 8.78, 73.89 10.49 C71.34 12.21, 64.79 14.18, 57.93 14.87 C51.07 15.56, 40.88 15.05, 32.74 14.65 C24.6 14.25, 14.41 13.56, 9.11 12.48 C3.8 11.4, 1.03 9.86, 0.9 8.18 C0.76 6.51, 3.29 3.64, 8.29 2.42 C13.3 1.19, 22 0.91, 30.92 0.84 C39.84 0.78, 55.83 1.82, 61.81 2.02 C67.78 2.22, 67.05 1.84, 66.77 2.02 M39.13 -0.15 C47.06 -0.31, 57.66 -0.29, 63.88 0.63 C70.09 1.56, 75.16 3.45, 76.45 5.42 C77.74 7.39, 75.9 10.67, 71.61 12.46 C67.33 14.25, 58.4 15.8, 50.73 16.15 C43.07 16.49, 33.16 15.22, 25.61 14.55 C18.07 13.88, 9.39 13.69, 5.46 12.11 C1.52 10.52, 0.67 6.96, 1.98 5.02 C3.29 3.09, 7.51 1.17, 13.32 0.48 C19.13 -0.2, 32.61 0.94, 36.84 0.91 C41.07 0.87, 38.62 0.13, 38.71 0.25" stroke="none" stroke-width="0" fill="#fff"></path><path d="M52.87 1.1 C60.16 1.57, 69.05 2.79, 72.92 4.25 C76.8 5.7, 78.06 8.3, 76.14 9.84 C74.22 11.38, 68 12.62, 61.41 13.51 C54.81 14.41, 44.86 15.06, 36.55 15.2 C28.24 15.35, 17.59 15.32, 11.54 14.37 C5.48 13.42, 1.25 11.25, 0.24 9.51 C-0.78 7.78, 0.89 5.54, 5.46 3.97 C10.02 2.4, 19.57 0.67, 27.61 0.08 C35.66 -0.51, 49.06 0.35, 53.71 0.41 C58.36 0.48, 55.7 0.16, 55.51 0.45 M36.96 -1.43 C44.38 -1.55, 53.55 0.51, 60.02 1.7 C66.49 2.89, 73.82 4.26, 75.77 5.69 C77.72 7.12, 75.41 8.82, 71.73 10.28 C68.05 11.74, 60.82 13.67, 53.7 14.43 C46.58 15.2, 37.01 15.3, 29.02 14.87 C21.02 14.43, 10.45 13.2, 5.74 11.81 C1.03 10.42, -0.21 8.07, 0.76 6.5 C1.72 4.94, 5.91 3.74, 11.53 2.42 C17.14 1.1, 30.27 -1.2, 34.45 -1.41 C38.64 -1.61, 36.23 0.8, 36.65 1.18" stroke="#000000" stroke-width="1" fill="none"></path></g><g transform="translate(29.7925713940906 44.686956174851275) rotate(0 8.5 18.00000000000003)"><text x="0" y="29" font-family="Cascadia, Segoe UI Emoji" font-size="29.219434366479078px" fill="#495057" text-anchor="start" style="white-space: pre;" direction="ltr">{</text></g><g transform="translate(51.803444739836095 45.16366614677031) rotate(0 8.47259989586712 17.97218159729394)"><text x="0" y="28.94436319458793" font-family="Cascadia, Segoe UI Emoji" font-size="29.384515916572173px" fill="#495057" text-anchor="start" style="white-space: pre;" direction="ltr">}</text></g><g transform="translate(26.007224619422914 110.78901166257714) rotate(0 23.5 11.5)"><text x="23.5" y="16" font-family="Virgil, Segoe UI Emoji" font-size="18.16360832146819px" fill="#000000" text-anchor="middle" style="white-space: pre;" direction="ltr">Redis</text></g><g stroke-linecap="round" transform="translate(214.63259366402212 36.41485260025121) rotate(0 87.80275764431042 18.43551993002376)"><path d="M1.9 -1.87 L175.31 -1.8 L173.94 38.08 L0.83 37" stroke="none" stroke-width="0" fill="#eeeeee"></path><path d="M-0.09 1.68 C46.69 -0.82, 97.34 -2.23, 173.78 -0.66 M0.69 -0.14 C51.49 0.54, 102.37 -0.22, 175.15 0.15 M174.49 -0.19 C175.07 13.77, 175.15 23.04, 175.26 37.61 M174.88 -0.95 C176.27 10.66, 176.34 20.01, 176.19 36.99 M173.89 36.63 C104.94 37.7, 34.52 38.94, -1.31 38.03 M175.16 37.74 C127.67 35.75, 78.84 36.21, 0.67 36.59 M0.85 38.44 C-0.07 24.96, -1.16 13.68, -0.2 1.55 M0.1 37.46 C-0.64 29.41, 0.06 20.11, 0.17 0.32" stroke="#000000" stroke-width="1" fill="none"></path></g><g transform="translate(282.93535130833266 38.26720670802155) rotate(0 19.5 13)"><text x="19.5" y="18" font-family="Virgil, Segoe UI Emoji" font-size="20.426048800410516px" fill="#000000" text-anchor="middle" style="white-space: pre;" direction="ltr">API</text></g><g stroke-linecap="round" transform="translate(514.1879437192163 22.07862939611988) rotate(0 65.22092395002153 39.033987671384125)"><path d="M0.14 0.95 L130.99 -1.95 L132.42 78.12 L1.33 76.99" stroke="none" stroke-width="0" fill="#ffffff"></path><path d="M-1.56 0.89 C48.75 -1.94, 96.88 -1.07, 132.15 1.16 M-0.99 -0.11 C29.92 2.18, 57.3 1.18, 130.12 -0.04 M128.92 0.66 C129.61 26.23, 132.13 52, 129.96 76.11 M130.3 0.41 C131.35 16.82, 131.25 31.85, 129.46 77.37 M128.96 78.42 C95 79.34, 59.64 80.36, 1.98 76.81 M130.44 78.54 C95.79 76.51, 62.56 76.72, -0.83 77.22 M-0.84 77.68 C-1.24 59.58, 0.33 40.48, -0.84 -0.88 M0.85 79.02 C-1.24 53.32, 0.06 29.35, 0.04 0.31" stroke="#000000" stroke-width="1" fill="none"></path></g><g transform="translate(556.4088676692379 101.27950202692097) rotate(0 23 10.5)"><text x="23" y="15" font-family="Virgil, Segoe UI Emoji" font-size="16.580050140206698px" fill="#000000" text-anchor="middle" style="white-space: pre;" direction="ltr">Client</text></g><g stroke-linecap="round" transform="translate(514.3695190124356 22.10084306694131) rotate(0 64.79047928727982 6.358747304056607)"><path d="M0.95 0.55 L127.63 1.98 L129.64 14.05 L-1.08 12.91" stroke="none" stroke-width="0" fill="#ced4da"></path><path d="M0.89 -0.53 C25.32 -0.66, 53 2.72, 130.74 -1.54 M-0.11 0.84 C51.53 0.43, 101.07 0.96, 129.54 0.46 M130 -0.4 C129.1 4.69, 128.33 6.66, 128.34 11.52 M129.84 0.24 C130.09 4.86, 129.42 8.75, 129.14 12.55 M129.93 13.01 C85.27 12.41, 41.29 13.73, -1.26 11.89 M130.05 11.81 C96.98 12.32, 65.02 11.88, -0.85 12.2 M-0.24 12.26 C0.52 8.6, 0.73 2.86, -0.56 0.16 M0.61 12.37 C-0.32 8.24, -0.05 2.83, 0.2 0.04" stroke="#000000" stroke-width="1" fill="none"></path></g><g stroke-linecap="round" transform="translate(518.7657516701584 25.552612877173544) rotate(0 2.5510026540845274 2.5510026540845274)"><path d="M5.1 2.55 C5.1 2.7, 5.09 2.85, 5.06 2.99 C5.04 3.14, 5 3.28, 4.95 3.42 C4.9 3.56, 4.83 3.7, 4.76 3.83 C4.69 3.95, 4.6 4.08, 4.51 4.19 C4.41 4.3, 4.3 4.41, 4.19 4.51 C4.08 4.6, 3.95 4.69, 3.83 4.76 C3.7 4.83, 3.56 4.9, 3.42 4.95 C3.28 5, 3.14 5.04, 2.99 5.06 C2.85 5.09, 2.7 5.1, 2.55 5.1 C2.4 5.1, 2.25 5.09, 2.11 5.06 C1.96 5.04, 1.82 5, 1.68 4.95 C1.54 4.9, 1.4 4.83, 1.28 4.76 C1.15 4.69, 1.02 4.6, 0.91 4.51 C0.8 4.41, 0.69 4.3, 0.6 4.19 C0.5 4.08, 0.42 3.95, 0.34 3.83 C0.27 3.7, 0.2 3.56, 0.15 3.42 C0.1 3.28, 0.06 3.14, 0.04 2.99 C0.01 2.85, 0 2.7, 0 2.55 C0 2.4, 0.01 2.25, 0.04 2.11 C0.06 1.96, 0.1 1.82, 0.15 1.68 C0.2 1.54, 0.27 1.4, 0.34 1.28 C0.42 1.15, 0.5 1.02, 0.6 0.91 C0.69 0.8, 0.8 0.69, 0.91 0.6 C1.02 0.5, 1.15 0.42, 1.28 0.34 C1.4 0.27, 1.54 0.2, 1.68 0.15 C1.82 0.1, 1.96 0.06, 2.11 0.04 C2.25 0.01, 2.4 0, 2.55 0 C2.7 0, 2.85 0.01, 2.99 0.04 C3.14 0.06, 3.28 0.1, 3.42 0.15 C3.56 0.2, 3.7 0.27, 3.83 0.34 C3.95 0.42, 4.08 0.5, 4.19 0.6 C4.3 0.69, 4.41 0.8, 4.51 0.91 C4.6 1.02, 4.69 1.15, 4.76 1.28 C4.83 1.4, 4.9 1.54, 4.95 1.68 C5 1.82, 5.04 1.96, 5.06 2.11 C5.09 2.25, 5.1 2.48, 5.1 2.55 C5.11 2.62, 5.11 2.48, 5.1 2.55" stroke="none" stroke-width="0" fill="#fa5252"></path><path d="M5.1 2.55 C5.1 2.7, 5.09 2.85, 5.06 2.99 C5.04 3.14, 5 3.28, 4.95 3.42 C4.9 3.56, 4.83 3.7, 4.76 3.83 C4.69 3.95, 4.6 4.08, 4.51 4.19 C4.41 4.3, 4.3 4.41, 4.19 4.51 C4.08 4.6, 3.95 4.69, 3.83 4.76 C3.7 4.83, 3.56 4.9, 3.42 4.95 C3.28 5, 3.14 5.04, 2.99 5.06 C2.85 5.09, 2.7 5.1, 2.55 5.1 C2.4 5.1, 2.25 5.09, 2.11 5.06 C1.96 5.04, 1.82 5, 1.68 4.95 C1.54 4.9, 1.4 4.83, 1.28 4.76 C1.15 4.69, 1.02 4.6, 0.91 4.51 C0.8 4.41, 0.69 4.3, 0.6 4.19 C0.5 4.08, 0.42 3.95, 0.34 3.83 C0.27 3.7, 0.2 3.56, 0.15 3.42 C0.1 3.28, 0.06 3.14, 0.04 2.99 C0.01 2.85, 0 2.7, 0 2.55 C0 2.4, 0.01 2.25, 0.04 2.11 C0.06 1.96, 0.1 1.82, 0.15 1.68 C0.2 1.54, 0.27 1.4, 0.34 1.28 C0.42 1.15, 0.5 1.02, 0.6 0.91 C0.69 0.8, 0.8 0.69, 0.91 0.6 C1.02 0.5, 1.15 0.42, 1.28 0.34 C1.4 0.27, 1.54 0.2, 1.68 0.15 C1.82 0.1, 1.96 0.06, 2.11 0.04 C2.25 0.01, 2.4 0, 2.55 0 C2.7 0, 2.85 0.01, 2.99 0.04 C3.14 0.06, 3.28 0.1, 3.42 0.15 C3.56 0.2, 3.7 0.27, 3.83 0.34 C3.95 0.42, 4.08 0.5, 4.19 0.6 C4.3 0.69, 4.41 0.8, 4.51 0.91 C4.6 1.02, 4.69 1.15, 4.76 1.28 C4.83 1.4, 4.9 1.54, 4.95 1.68 C5 1.82, 5.04 1.96, 5.06 2.11 C5.09 2.25, 5.1 2.48, 5.1 2.55 C5.11 2.62, 5.11 2.48, 5.1 2.55" stroke="#000000" stroke-width="1" fill="none"></path></g><g stroke-linecap="round" transform="translate(529.2337278090868 25.552612877173544) rotate(0 2.5510026540845274 2.5510026540845274)"><path d="M5.1 2.55 C5.1 2.7, 5.09 2.85, 5.06 2.99 C5.04 3.14, 5 3.28, 4.95 3.42 C4.9 3.56, 4.83 3.7, 4.76 3.83 C4.69 3.95, 4.6 4.08, 4.51 4.19 C4.41 4.3, 4.3 4.41, 4.19 4.51 C4.08 4.6, 3.95 4.69, 3.83 4.76 C3.7 4.83, 3.56 4.9, 3.42 4.95 C3.28 5, 3.14 5.04, 2.99 5.06 C2.85 5.09, 2.7 5.1, 2.55 5.1 C2.4 5.1, 2.25 5.09, 2.11 5.06 C1.96 5.04, 1.82 5, 1.68 4.95 C1.54 4.9, 1.4 4.83, 1.28 4.76 C1.15 4.69, 1.02 4.6, 0.91 4.51 C0.8 4.41, 0.69 4.3, 0.6 4.19 C0.5 4.08, 0.42 3.95, 0.34 3.83 C0.27 3.7, 0.2 3.56, 0.15 3.42 C0.1 3.28, 0.06 3.14, 0.04 2.99 C0.01 2.85, 0 2.7, 0 2.55 C0 2.4, 0.01 2.25, 0.04 2.11 C0.06 1.96, 0.1 1.82, 0.15 1.68 C0.2 1.54, 0.27 1.4, 0.34 1.28 C0.42 1.15, 0.5 1.02, 0.6 0.91 C0.69 0.8, 0.8 0.69, 0.91 0.6 C1.02 0.5, 1.15 0.42, 1.28 0.34 C1.4 0.27, 1.54 0.2, 1.68 0.15 C1.82 0.1, 1.96 0.06, 2.11 0.04 C2.25 0.01, 2.4 0, 2.55 0 C2.7 0, 2.85 0.01, 2.99 0.04 C3.14 0.06, 3.28 0.1, 3.42 0.15 C3.56 0.2, 3.7 0.27, 3.83 0.34 C3.95 0.42, 4.08 0.5, 4.19 0.6 C4.3 0.69, 4.41 0.8, 4.51 0.91 C4.6 1.02, 4.69 1.15, 4.76 1.28 C4.83 1.4, 4.9 1.54, 4.95 1.68 C5 1.82, 5.04 1.96, 5.06 2.11 C5.09 2.25, 5.1 2.48, 5.1 2.55 C5.11 2.62, 5.11 2.48, 5.1 2.55" stroke="none" stroke-width="0" fill="#fab005"></path><path d="M5.1 2.55 C5.1 2.7, 5.09 2.85, 5.06 2.99 C5.04 3.14, 5 3.28, 4.95 3.42 C4.9 3.56, 4.83 3.7, 4.76 3.83 C4.69 3.95, 4.6 4.08, 4.51 4.19 C4.41 4.3, 4.3 4.41, 4.19 4.51 C4.08 4.6, 3.95 4.69, 3.83 4.76 C3.7 4.83, 3.56 4.9, 3.42 4.95 C3.28 5, 3.14 5.04, 2.99 5.06 C2.85 5.09, 2.7 5.1, 2.55 5.1 C2.4 5.1, 2.25 5.09, 2.11 5.06 C1.96 5.04, 1.82 5, 1.68 4.95 C1.54 4.9, 1.4 4.83, 1.28 4.76 C1.15 4.69, 1.02 4.6, 0.91 4.51 C0.8 4.41, 0.69 4.3, 0.6 4.19 C0.5 4.08, 0.42 3.95, 0.34 3.83 C0.27 3.7, 0.2 3.56, 0.15 3.42 C0.1 3.28, 0.06 3.14, 0.04 2.99 C0.01 2.85, 0 2.7, 0 2.55 C0 2.4, 0.01 2.25, 0.04 2.11 C0.06 1.96, 0.1 1.82, 0.15 1.68 C0.2 1.54, 0.27 1.4, 0.34 1.28 C0.42 1.15, 0.5 1.02, 0.6 0.91 C0.69 0.8, 0.8 0.69, 0.91 0.6 C1.02 0.5, 1.15 0.42, 1.28 0.34 C1.4 0.27, 1.54 0.2, 1.68 0.15 C1.82 0.1, 1.96 0.06, 2.11 0.04 C2.25 0.01, 2.4 0, 2.55 0 C2.7 0, 2.85 0.01, 2.99 0.04 C3.14 0.06, 3.28 0.1, 3.42 0.15 C3.56 0.2, 3.7 0.27, 3.83 0.34 C3.95 0.42, 4.08 0.5, 4.19 0.6 C4.3 0.69, 4.41 0.8, 4.51 0.91 C4.6 1.02, 4.69 1.15, 4.76 1.28 C4.83 1.4, 4.9 1.54, 4.95 1.68 C5 1.82, 5.04 1.96, 5.06 2.11 C5.09 2.25, 5.1 2.48, 5.1 2.55 C5.11 2.62, 5.11 2.48, 5.1 2.55" stroke="#000000" stroke-width="1" fill="none"></path></g><g stroke-linecap="round" transform="translate(540.1614407072097 26.01234963638393) rotate(0 2.5510026540845274 2.5510026540845274)"><path d="M5.1 2.55 C5.1 2.7, 5.09 2.85, 5.06 2.99 C5.04 3.14, 5 3.28, 4.95 3.42 C4.9 3.56, 4.83 3.7, 4.76 3.83 C4.69 3.95, 4.6 4.08, 4.51 4.19 C4.41 4.3, 4.3 4.41, 4.19 4.51 C4.08 4.6, 3.95 4.69, 3.83 4.76 C3.7 4.83, 3.56 4.9, 3.42 4.95 C3.28 5, 3.14 5.04, 2.99 5.06 C2.85 5.09, 2.7 5.1, 2.55 5.1 C2.4 5.1, 2.25 5.09, 2.11 5.06 C1.96 5.04, 1.82 5, 1.68 4.95 C1.54 4.9, 1.4 4.83, 1.28 4.76 C1.15 4.69, 1.02 4.6, 0.91 4.51 C0.8 4.41, 0.69 4.3, 0.6 4.19 C0.5 4.08, 0.42 3.95, 0.34 3.83 C0.27 3.7, 0.2 3.56, 0.15 3.42 C0.1 3.28, 0.06 3.14, 0.04 2.99 C0.01 2.85, 0 2.7, 0 2.55 C0 2.4, 0.01 2.25, 0.04 2.11 C0.06 1.96, 0.1 1.82, 0.15 1.68 C0.2 1.54, 0.27 1.4, 0.34 1.28 C0.42 1.15, 0.5 1.02, 0.6 0.91 C0.69 0.8, 0.8 0.69, 0.91 0.6 C1.02 0.5, 1.15 0.42, 1.28 0.34 C1.4 0.27, 1.54 0.2, 1.68 0.15 C1.82 0.1, 1.96 0.06, 2.11 0.04 C2.25 0.01, 2.4 0, 2.55 0 C2.7 0, 2.85 0.01, 2.99 0.04 C3.14 0.06, 3.28 0.1, 3.42 0.15 C3.56 0.2, 3.7 0.27, 3.83 0.34 C3.95 0.42, 4.08 0.5, 4.19 0.6 C4.3 0.69, 4.41 0.8, 4.51 0.91 C4.6 1.02, 4.69 1.15, 4.76 1.28 C4.83 1.4, 4.9 1.54, 4.95 1.68 C5 1.82, 5.04 1.96, 5.06 2.11 C5.09 2.25, 5.1 2.48, 5.1 2.55 C5.11 2.62, 5.11 2.48, 5.1 2.55" stroke="none" stroke-width="0" fill="#40c057"></path><path d="M5.1 2.55 C5.1 2.7, 5.09 2.85, 5.06 2.99 C5.04 3.14, 5 3.28, 4.95 3.42 C4.9 3.56, 4.83 3.7, 4.76 3.83 C4.69 3.95, 4.6 4.08, 4.51 4.19 C4.41 4.3, 4.3 4.41, 4.19 4.51 C4.08 4.6, 3.95 4.69, 3.83 4.76 C3.7 4.83, 3.56 4.9, 3.42 4.95 C3.28 5, 3.14 5.04, 2.99 5.06 C2.85 5.09, 2.7 5.1, 2.55 5.1 C2.4 5.1, 2.25 5.09, 2.11 5.06 C1.96 5.04, 1.82 5, 1.68 4.95 C1.54 4.9, 1.4 4.83, 1.28 4.76 C1.15 4.69, 1.02 4.6, 0.91 4.51 C0.8 4.41, 0.69 4.3, 0.6 4.19 C0.5 4.08, 0.42 3.95, 0.34 3.83 C0.27 3.7, 0.2 3.56, 0.15 3.42 C0.1 3.28, 0.06 3.14, 0.04 2.99 C0.01 2.85, 0 2.7, 0 2.55 C0 2.4, 0.01 2.25, 0.04 2.11 C0.06 1.96, 0.1 1.82, 0.15 1.68 C0.2 1.54, 0.27 1.4, 0.34 1.28 C0.42 1.15, 0.5 1.02, 0.6 0.91 C0.69 0.8, 0.8 0.69, 0.91 0.6 C1.02 0.5, 1.15 0.42, 1.28 0.34 C1.4 0.27, 1.54 0.2, 1.68 0.15 C1.82 0.1, 1.96 0.06, 2.11 0.04 C2.25 0.01, 2.4 0, 2.55 0 C2.7 0, 2.85 0.01, 2.99 0.04 C3.14 0.06, 3.28 0.1, 3.42 0.15 C3.56 0.2, 3.7 0.27, 3.83 0.34 C3.95 0.42, 4.08 0.5, 4.19 0.6 C4.3 0.69, 4.41 0.8, 4.51 0.91 C4.6 1.02, 4.69 1.15, 4.76 1.28 C4.83 1.4, 4.9 1.54, 4.95 1.68 C5 1.82, 5.04 1.96, 5.06 2.11 C5.09 2.25, 5.1 2.48, 5.1 2.55 C5.11 2.62, 5.11 2.48, 5.1 2.55" stroke="#000000" stroke-width="1" fill="none"></path></g><g transform="translate(549.3397829834707 45.43905054851035) rotate(0 5.480869157068355 8.90641238023602)"><text x="0" y="11.812824760471983" font-family="Virgil, Segoe UI Emoji" font-size="13.70217289267076px" fill="#228be6" text-anchor="start" style="white-space: pre;" direction="ltr">G</text></g><g transform="translate(562.3568472315085 45.43905054851035) rotate(0 3.7680975454844656 8.90641238023602)"><text x="0" y="11.812824760471983" font-family="Virgil, Segoe UI Emoji" font-size="13.702172892670754px" fill="#d9480f" text-anchor="start" style="white-space: pre;" direction="ltr">o</text></g><g transform="translate(572.6334769010116 45.43905054851035) rotate(0 3.7680975454844656 8.90641238023602)"><text x="0" y="11.812824760471983" font-family="Virgil, Segoe UI Emoji" font-size="13.702172892670754px" fill="#fab005" text-anchor="start" style="white-space: pre;" direction="ltr">o</text></g><g transform="translate(582.2249979258806 45.43905054851035) rotate(0 3.425543223167665 8.90641238023602)"><text x="0" y="11.812824760471983" font-family="Virgil, Segoe UI Emoji" font-size="13.702172892670756px" fill="#228be6" text-anchor="start" style="white-space: pre;" direction="ltr">g</text></g><g transform="translate(590.446301661483 45.43905054851035) rotate(0 1.7127716115838894 8.90641238023602)"><text x="0" y="11.812824760471983" font-family="Virgil, Segoe UI Emoji" font-size="13.702172892670756px" fill="#5c940d" text-anchor="start" style="white-space: pre;" direction="ltr">l</text></g><g transform="translate(595.9271708185508 45.43905054851035) rotate(0 3.7680975454844656 8.90641238023602)"><text x="0" y="11.812824760471983" font-family="Virgil, Segoe UI Emoji" font-size="13.702172892670754px" fill="#d9480f" text-anchor="start" style="white-space: pre;" direction="ltr">e</text></g><g stroke-linecap="round" transform="translate(536.2465955526975 66.92862503518205) rotate(0 41.943873688119766 6.1812024382492154)"><path d="M3.09 0 M3.09 0 C18.43 0.49, 39.42 2.7, 80.8 0 M3.09 0 C19.68 0.71, 36.09 0.21, 80.8 0 M80.8 0 C81.33 0.66, 83.26 0.28, 83.89 3.09 M80.8 0 C85.03 -2.25, 83.33 -1.22, 83.89 3.09 M83.89 3.09 C83.84 4.62, 84.16 6.1, 83.89 9.27 M83.89 3.09 C83.65 5.03, 84.02 7.26, 83.89 9.27 M83.89 9.27 C82.41 11.68, 83.15 13.06, 80.8 12.36 M83.89 9.27 C84.64 13.32, 85.13 10.92, 80.8 12.36 M80.8 12.36 C60.68 12.64, 38.79 10.83, 3.09 12.36 M80.8 12.36 C59.7 11.2, 40.96 12.26, 3.09 12.36 M3.09 12.36 C0.19 11.98, -0.71 12.26, 0 9.27 M3.09 12.36 C2.01 13.81, -0.96 10.32, 0 9.27 M0 9.27 C0.47 7.93, -0.39 5.19, 0 3.09 M0 9.27 C0.09 6.97, 0.14 4.71, 0 3.09 M0 3.09 C-1.95 3.01, 1.09 1.33, 3.09 0 M0 3.09 C-1.24 1.25, 2.09 -0.87, 3.09 0" stroke="#000000" stroke-width="1" fill="none"></path></g><g stroke-linecap="round" transform="translate(609.979510351812 70.01922625430649) rotate(0 2.4494459737657053 2.1056640827108595)"><path d="M3.44 -0.14 C3.74 0.23, 4.42 1.19, 4.61 1.64 C4.8 2.09, 4.81 2.16, 4.56 2.57 C4.32 2.99, 3.56 3.93, 3.12 4.14 C2.69 4.35, 2.2 4.08, 1.96 3.83 C1.72 3.58, 2.06 3.05, 1.69 2.64 C1.33 2.22, 0.14 1.51, -0.23 1.34 C-0.6 1.17, -0.89 1.85, -0.52 1.61 C-0.15 1.38, 1.25 0.11, 2.01 -0.06 C2.77 -0.22, 3.62 0.52, 4.04 0.63 C4.46 0.75, 4.66 0.85, 4.52 0.65 M2.27 -0.99 C2.83 -1.24, 3.08 -0.08, 3.56 0.35 C4.03 0.77, 4.67 0.95, 5.1 1.55 C5.53 2.15, 6.5 3.7, 6.16 3.96 C5.82 4.22, 3.83 3.28, 3.08 3.1 C2.33 2.93, 2.04 2.69, 1.67 2.91 C1.3 3.13, 1.36 4.61, 0.86 4.43 C0.36 4.25, -1.13 2.44, -1.32 1.82 C-1.5 1.21, -0.54 1.22, -0.26 0.72 C0.02 0.23, 0.18 -1.23, 0.37 -1.15 C0.55 -1.08, 0.51 1.03, 0.86 1.17" stroke="#000000" stroke-width="1" fill="none"></path></g><g stroke-linecap="round"><g transform="translate(614.771868619069 74.19308721928888) rotate(0 0.6847197948048915 1.9334211107010901)"><path d="M-0.3 2.35 C1 2.94, 4.82 0.79, 5.28 0.77 M-3.91 1.16 C-2.5 2.27, 3.8 2.47, 4.56 3.09" stroke="#000000" stroke-width="1" fill="none"></path></g></g><g stroke-linecap="round"><g transform="translate(511.20845459766565 58.898735222106495) rotate(0 -59.788989065203054 -0.31559002118916624)"><path d="M-0.64 0.93 C-20.76 0.77, -100.29 0.48, -120.45 0.2 M1.23 0.37 C-18.97 0.37, -100.2 -1.57, -120.8 -1.56" stroke="#000000" stroke-width="1" fill="none"></path></g><g transform="translate(511.20845459766565 58.898735222106495) rotate(0 -59.788989065203054 -0.31559002118916624)"><path d="M-90.94 -9.56 C-100.34 -8.44, -110.99 -6.98, -121.97 -0.87 M-91.57 -12.22 C-101.34 -8.51, -109.92 -5.5, -120.24 -0.81" stroke="#000000" stroke-width="1" fill="none"></path></g><g transform="translate(511.20845459766565 58.898735222106495) rotate(0 -59.788989065203054 -0.31559002118916624)"><path d="M-91.2 10.96 C-100.72 5.49, -111.28 0.35, -121.97 -0.87 M-91.83 8.3 C-101.6 5.52, -110.09 2.03, -120.24 -0.81" stroke="#000000" stroke-width="1" fill="none"></path></g></g><g stroke-linecap="round"><g transform="translate(208.99972518578443 65.29931976834501) rotate(0 -58.556719250476476 -0.5374675787814454)"><path d="M0.73 -0.13 C-18.97 -0.24, -97.72 -0.74, -117.46 -0.83 M-0.35 -1.24 C-20.17 -1.22, -98.23 -0.07, -117.84 0.17" stroke="#000000" stroke-width="1" fill="none"></path></g><g transform="translate(208.99972518578443 65.29931976834501) rotate(0 -58.556719250476476 -0.5374675787814454)"><path d="M-90.01 -8.67 C-101.56 -5.07, -111.34 -1.9, -116.14 -0.55 M-89.17 -11.29 C-99.42 -6.79, -110.65 -2.67, -117.96 0.1" stroke="#000000" stroke-width="1" fill="none"></path></g><g transform="translate(208.99972518578443 65.29931976834501) rotate(0 -58.556719250476476 -0.5374675787814454)"><path d="M-89.73 11.85 C-101.35 8.1, -111.23 3.92, -116.14 -0.55 M-88.9 9.23 C-99.39 6.34, -110.71 3.08, -117.96 0.1" stroke="#000000" stroke-width="1" fill="none"></path></g></g></svg>