<svg version="1.1" xmlns="http://www.w3.org/2000/svg" viewBox="0 0 520.8392327736583 476.08628094524323" width="520.8392327736583" height="476.08628094524323">
  <!-- svg-source:excalidraw -->
  
  <defs>
    <style>
      @font-face {
        font-family: "Virgil";
        src: url("https://excalidraw.com/Virgil.woff2");
      }
      @font-face {
        font-family: "Cascadia";
        src: url("https://excalidraw.com/Cascadia.woff2");
      }
    </style>
  </defs>
  <rect x="0" y="0" width="520.8392327736583" height="476.08628094524323" fill="#ffffff"></rect><g stroke-linecap="round" transform="translate(10 10) rotate(0 250.41961638682915 89.3369851591332)"><path d="M0.42 0.02 L500.07 -1.87 L499.72 177.87 L0.29 178.3" stroke="none" stroke-width="0" fill="#eeeeee"></path><path d="M0.35 0.48 C104.47 1.61, 209.28 1.17, 501.01 0.64 M0.26 -0.14 C166.67 1.1, 334 0.59, 501.18 0.26 M502.39 -1.52 C501.52 42.37, 502.05 81.29, 501.98 177.34 M499.85 -0.07 C500.03 38.51, 499.06 76.14, 501.42 178.46 M501.37 179.43 C300.48 180.08, 101.91 181.26, -0.12 177.9 M500.91 178.65 C320.16 180.02, 139.83 179.61, -0.26 178.55 M0.66 180.31 C-0.38 140.33, -0.14 97.89, -0.85 1.28 M-0.56 178.2 C-0.35 125.77, -0.48 70.17, 0.37 0.63" stroke="#000000" stroke-width="1" fill="none"></path></g><g stroke-linecap="round"><g transform="translate(21.701321609914885 351.0681959063003) rotate(0 38.326078466427134 41.97115182199042)" fill-rule="evenodd"><path d="M-1.12 -0.19 L-0.7 85.12 L0.7 84.75 L17.39 91.22 L40.43 91.29 L63.57 88.44 L74.71 86.21 L78.2 0.4 L67.43 -4.01 L37.51 -5.98 L10.23 -3.67 L1.58 -3.45 L-0.89 -0.48" stroke="none" stroke-width="0" fill="#ced4da" fill-rule="evenodd"></path><path d="M0.19 0.2 C-0.03 12.9, -1.06 62.09, -0.9 76.08 C-0.73 90.06, 0.46 82.13, 1.2 84.11 C1.94 86.08, 0.66 86.87, 3.53 87.93 C6.4 89, 12.05 89.84, 18.42 90.5 C24.79 91.16, 34.26 92.06, 41.76 91.88 C49.27 91.7, 57.82 90.41, 63.44 89.41 C69.06 88.41, 73.37 86.74, 75.47 85.87 C77.56 85.01, 75.77 85.68, 76.01 84.23 C76.25 82.77, 76.92 90.07, 76.9 77.17 C76.88 64.28, 75.88 19.81, 75.89 6.84 C75.9 -6.12, 77.89 1.26, 76.97 -0.61 C76.04 -2.48, 73 -3.35, 70.32 -4.39 C67.63 -5.42, 66.46 -6.36, 60.87 -6.81 C55.28 -7.26, 43.9 -7.25, 36.77 -7.1 C29.64 -6.95, 23.71 -6.76, 18.09 -5.92 C12.47 -5.08, 6.26 -2.97, 3.04 -2.09 C-0.17 -1.2, -0.72 -1, -1.2 -0.59 C-1.68 -0.19, 0 0.35, 0.18 0.33 M-1.16 -0.74 C-1.08 11.65, 0.84 60.67, 1.21 74.46 C1.58 88.25, 0.67 80.13, 1.06 82 C1.44 83.87, 0.83 84.19, 3.54 85.68 C6.25 87.16, 11.24 90, 17.31 90.9 C23.37 91.8, 32.1 90.97, 39.91 91.07 C47.72 91.16, 58.4 92.42, 64.19 91.47 C69.98 90.52, 72.42 86.71, 74.66 85.37 C76.9 84.04, 77.12 84.81, 77.62 83.46 C78.12 82.11, 77.96 89.81, 77.65 77.25 C77.33 64.69, 76.04 21.19, 75.74 8.11 C75.45 -4.96, 76.83 1.06, 75.87 -1.19 C74.91 -3.45, 72.6 -4.39, 69.97 -5.42 C67.34 -6.45, 65.62 -7.06, 60.09 -7.36 C54.57 -7.66, 43.67 -7.15, 36.83 -7.23 C29.98 -7.31, 24.89 -8.31, 19.03 -7.84 C13.17 -7.37, 4.73 -5.62, 1.66 -4.4 C-1.42 -3.18, 1.02 -1.37, 0.56 -0.51 C0.1 0.35, -1.06 0.55, -1.11 0.76" stroke="#000000" stroke-width="1" fill="none"></path></g></g><g stroke-linecap="round" transform="translate(21.20765386797484 342.2972692826661) rotate(0 38.252112724462336 7.736202016062123)"><path d="M55.29 0.78 C62.29 1.26, 70.15 2.97, 73.25 4.58 C76.35 6.2, 76.44 8.78, 73.89 10.49 C71.34 12.21, 64.79 14.18, 57.93 14.87 C51.07 15.56, 40.88 15.05, 32.74 14.65 C24.6 14.25, 14.41 13.56, 9.11 12.48 C3.8 11.4, 1.03 9.86, 0.9 8.18 C0.76 6.51, 3.29 3.64, 8.29 2.42 C13.3 1.19, 22 0.91, 30.92 0.84 C39.84 0.78, 55.83 1.82, 61.81 2.02 C67.78 2.22, 67.05 1.84, 66.77 2.02 M39.13 -0.15 C47.06 -0.31, 57.66 -0.29, 63.88 0.63 C70.09 1.56, 75.16 3.45, 76.45 5.42 C77.74 7.39, 75.9 10.67, 71.61 12.46 C67.33 14.25, 58.4 15.8, 50.73 16.15 C43.07 16.49, 33.16 15.22, 25.61 14.55 C18.07 13.88, 9.39 13.69, 5.46 12.11 C1.52 10.52, 0.67 6.96, 1.98 5.02 C3.29 3.09, 7.51 1.17, 13.32 0.48 C19.13 -0.2, 32.61 0.94, 36.84 0.91 C41.07 0.87, 38.62 0.13, 38.71 0.25" stroke="none" stroke-width="0" fill="#fff"></path><path d="M52.87 1.1 C60.16 1.57, 69.05 2.79, 72.92 4.25 C76.8 5.7, 78.06 8.3, 76.14 9.84 C74.22 11.38, 68 12.62, 61.41 13.51 C54.81 14.41, 44.86 15.06, 36.55 15.2 C28.24 15.35, 17.59 15.32, 11.54 14.37 C5.48 13.42, 1.25 11.25, 0.24 9.51 C-0.78 7.78, 0.89 5.54, 5.46 3.97 C10.02 2.4, 19.57 0.67, 27.61 0.08 C35.66 -0.51, 49.06 0.35, 53.71 0.41 C58.36 0.48, 55.7 0.16, 55.51 0.45 M36.96 -1.43 C44.38 -1.55, 53.55 0.51, 60.02 1.7 C66.49 2.89, 73.82 4.26, 75.77 5.69 C77.72 7.12, 75.41 8.82, 71.73 10.28 C68.05 11.74, 60.82 13.67, 53.7 14.43 C46.58 15.2, 37.01 15.3, 29.02 14.87 C21.02 14.43, 10.45 13.2, 5.74 11.81 C1.03 10.42, -0.21 8.07, 0.76 6.5 C1.72 4.94, 5.91 3.74, 11.53 2.42 C17.14 1.1, 30.27 -1.2, 34.45 -1.41 C38.64 -1.61, 36.23 0.8, 36.65 1.18" stroke="#000000" stroke-width="1" fill="none"></path></g><g transform="translate(40.210232229613666 376.98422545751737) rotate(0 8.5 17.99999999999997)"><text x="0" y="29" font-family="Cascadia, Segoe UI Emoji" font-size="29.219434366479078px" fill="#495057" text-anchor="start" style="white-space: pre;" direction="ltr">{</text></g><g transform="translate(62.22110557535916 377.4609354294364) rotate(0 8.47259989586712 17.97218159729394)"><text x="0" y="28.94436319458793" font-family="Cascadia, Segoe UI Emoji" font-size="29.384515916572173px" fill="#495057" text-anchor="start" style="white-space: pre;" direction="ltr">}</text></g><g transform="translate(36.42488545494598 443.08628094524323) rotate(0 23.5 11.5)"><text x="23.5" y="16" font-family="Virgil, Segoe UI Emoji" font-size="18.16360832146819px" fill="#000000" text-anchor="middle" style="white-space: pre;" direction="ltr">Redis</text></g><g stroke-linecap="round" transform="translate(308.6366034145417 379.43357078170465) rotate(0 87.80275764431042 18.43551993002376)"><path d="M1.9 -1.87 L175.31 -1.8 L173.94 38.08 L0.83 37" stroke="none" stroke-width="0" fill="#eeeeee"></path><path d="M-0.09 1.68 C46.69 -0.82, 97.34 -2.23, 173.78 -0.66 M0.69 -0.14 C51.49 0.54, 102.37 -0.22, 175.15 0.15 M174.49 -0.19 C175.07 13.77, 175.15 23.04, 175.26 37.61 M174.88 -0.95 C176.27 10.66, 176.34 20.01, 176.19 36.99 M173.89 36.63 C104.94 37.7, 34.52 38.94, -1.31 38.03 M175.16 37.74 C127.67 35.75, 78.84 36.21, 0.67 36.59 M0.85 38.44 C-0.07 24.96, -1.16 13.68, -0.2 1.55 M0.1 37.46 C-0.64 29.41, 0.06 20.11, 0.17 0.32" stroke="#000000" stroke-width="1" fill="none"></path></g><g transform="translate(376.9393610588522 381.285924889475) rotate(0 19.5 13)"><text x="19.5" y="18" font-family="Virgil, Segoe UI Emoji" font-size="20.426048800410516px" fill="#000000" text-anchor="middle" style="white-space: pre;" direction="ltr">API</text></g><g stroke-linecap="round"><g transform="translate(385.10689912795647 58.978124729310224) rotate(0 37.6112519495324 40.548677408012495)" fill-rule="evenodd"><path d="M1.26 1.48 L-0.83 82.08 L2.31 82.34 L16.03 90.01 L37.98 89.42 L61.38 87.55 L76.56 83.5 L75.12 0.7 L64.49 -6.39 L35.06 -6.9 L10 -3.29 L3.76 -3.89 L-1.84 -1.97" stroke="none" stroke-width="0" fill="#ced4da" fill-rule="evenodd"></path><path d="M0.28 -0.85 C0.26 11.35, 0.39 58.38, 0.2 72.2 C0.01 86.03, -1.51 79.77, -0.88 82.08 C-0.26 84.4, 0.97 85.25, 3.95 86.1 C6.94 86.96, 11.14 86.69, 17.05 87.22 C22.97 87.74, 32.12 89.04, 39.43 89.28 C46.74 89.51, 55.16 89.59, 60.92 88.62 C66.69 87.65, 71.83 84.6, 74.03 83.45 C76.23 82.3, 73.9 83.06, 74.12 81.7 C74.35 80.34, 75.23 87.75, 75.38 75.3 C75.54 62.86, 75.14 19.56, 75.05 7.04 C74.96 -5.48, 75.79 2.17, 74.82 0.18 C73.85 -1.8, 71.96 -3.79, 69.24 -4.9 C66.52 -6, 63.78 -6.13, 58.49 -6.44 C53.19 -6.75, 44.13 -6.82, 37.49 -6.75 C30.84 -6.68, 24.15 -6.74, 18.59 -6.03 C13.03 -5.33, 7.08 -3.64, 4.15 -2.53 C1.21 -1.42, 1.51 0.22, 0.98 0.63 C0.46 1.04, 1.3 0.15, 0.98 -0.06 M-1.03 1.32 C-1.24 13.72, -1.2 60.11, -0.77 73.23 C-0.34 86.35, 0.71 78.24, 1.54 80.05 C2.38 81.85, 1.93 82.89, 4.25 84.07 C6.57 85.25, 9.41 86.41, 15.46 87.12 C21.52 87.83, 32.95 88.22, 40.57 88.33 C48.19 88.45, 55.72 88.74, 61.21 87.82 C66.69 86.91, 71.06 84.02, 73.49 82.84 C75.92 81.66, 75.3 81.97, 75.78 80.74 C76.26 79.5, 76.41 88.08, 76.37 75.43 C76.32 62.78, 75.96 17.41, 75.5 4.84 C75.05 -7.73, 74.67 1.25, 73.63 0.01 C72.6 -1.23, 71.41 -1.44, 69.3 -2.59 C67.18 -3.74, 66.7 -6.18, 60.95 -6.88 C55.19 -7.58, 42.19 -6.6, 34.77 -6.8 C27.34 -7.01, 21.62 -8.99, 16.39 -8.11 C11.16 -7.22, 6.08 -3.04, 3.38 -1.47 C0.69 0.11, 0.78 1.08, 0.24 1.36 C-0.31 1.63, 0.3 0.24, 0.11 0.16" stroke="#000000" stroke-width="1" fill="none"></path></g></g><g stroke-linecap="round" transform="translate(385.37283171864055 50.22515657328219) rotate(0 37.26504103857019 7.536574193635644)"><path d="M45.15 -0.22 C52.48 -0.31, 60.76 0.71, 65.62 1.89 C70.49 3.06, 74.34 4.94, 74.34 6.81 C74.33 8.69, 70.81 11.84, 65.58 13.13 C60.36 14.42, 50.8 14.38, 42.97 14.56 C35.15 14.74, 25.36 15.08, 18.62 14.22 C11.88 13.35, 5.24 11, 2.53 9.38 C-0.18 7.75, -0.6 5.96, 2.38 4.46 C5.36 2.96, 12.96 1, 20.39 0.37 C27.81 -0.27, 42.33 0.71, 46.94 0.67 C51.55 0.63, 48.29 -0.04, 48.06 0.14 M27.89 0.25 C34.81 -0.1, 43.98 1.38, 51.14 2.07 C58.31 2.76, 67.33 3.15, 70.9 4.41 C74.47 5.67, 74.51 8.12, 72.55 9.65 C70.6 11.17, 65.51 12.78, 59.16 13.56 C52.81 14.34, 42.55 14.26, 34.46 14.33 C26.38 14.39, 16.33 14.93, 10.63 13.95 C4.94 12.96, 0.86 10.29, 0.28 8.44 C-0.31 6.59, 2.7 4.23, 7.13 2.84 C11.56 1.46, 23.4 0.55, 26.86 0.15 C30.33 -0.25, 27.82 0.5, 27.95 0.44" stroke="none" stroke-width="0" fill="#fff"></path><path d="M22.73 1.44 C29.61 0.54, 40.36 -0.81, 47.92 -0.45 C55.47 -0.09, 63.76 1.95, 68.05 3.57 C72.35 5.2, 74.45 7.8, 73.69 9.31 C72.93 10.82, 69.31 11.55, 63.48 12.62 C57.66 13.68, 46.8 15.41, 38.76 15.73 C30.71 16.04, 21.49 15.44, 15.23 14.48 C8.97 13.53, 2.99 11.65, 1.18 9.99 C-0.62 8.33, 0.28 6.27, 4.4 4.52 C8.51 2.77, 21.75 0.27, 25.87 -0.5 C29.99 -1.27, 28.72 -0.49, 29.12 -0.09 M50.3 1.7 C57.63 2.13, 66.19 3.93, 70.14 4.91 C74.08 5.9, 75.53 6.07, 73.97 7.62 C72.41 9.16, 66.64 13.03, 60.79 14.19 C54.94 15.36, 46.61 14.59, 38.86 14.6 C31.11 14.62, 20.83 15.39, 14.3 14.29 C7.77 13.19, 1.04 10, -0.32 8.01 C-1.68 6.03, 2.04 3.66, 6.15 2.38 C10.25 1.1, 17.08 0.4, 24.31 0.31 C31.54 0.23, 45.25 1.79, 49.53 1.86 C53.8 1.93, 49.93 1.01, 49.96 0.75" stroke="#000000" stroke-width="1" fill="none"></path></g><g transform="translate(398.19725227792287 89.63460073896346) rotate(0 22.5 12.5)"><text x="0" y="18" font-family="Virgil, Segoe UI Emoji" font-size="20px" fill="#000000" text-anchor="start" style="white-space: pre;" direction="ltr">Logs</text></g><g stroke-linecap="round" transform="translate(84.19871210586712 55.74058000262673) rotate(0 65.22092395002153 39.0339876713841)"><path d="M0.14 0.95 L130.99 -1.95 L132.42 78.12 L1.33 76.99" stroke="none" stroke-width="0" fill="#ffffff"></path><path d="M-1.56 0.89 C48.75 -1.94, 96.88 -1.07, 132.15 1.16 M-0.99 -0.11 C29.92 2.18, 57.3 1.18, 130.12 -0.04 M128.92 0.66 C129.61 26.23, 132.13 52, 129.96 76.11 M130.3 0.41 C131.35 16.82, 131.25 31.85, 129.46 77.37 M128.96 78.42 C95 79.34, 59.64 80.36, 1.98 76.81 M130.44 78.54 C95.79 76.51, 62.56 76.72, -0.83 77.22 M-0.84 77.68 C-1.24 59.58, 0.33 40.48, -0.84 -0.88 M0.85 79.02 C-1.24 53.32, 0.06 29.35, 0.04 0.31" stroke="#000000" stroke-width="1" fill="none"></path></g><g transform="translate(126.41963605588876 134.94145263342784) rotate(0 23 10.5)"><text x="23" y="15" font-family="Virgil, Segoe UI Emoji" font-size="16.580050140206698px" fill="#000000" text-anchor="middle" style="white-space: pre;" direction="ltr">Client</text></g><g stroke-linecap="round" transform="translate(84.38028739908646 55.76279367344816) rotate(0 64.79047928727982 6.358747304056607)"><path d="M0.95 0.55 L127.63 1.98 L129.64 14.05 L-1.08 12.91" stroke="none" stroke-width="0" fill="#ced4da"></path><path d="M0.89 -0.53 C25.32 -0.66, 53 2.72, 130.74 -1.54 M-0.11 0.84 C51.53 0.43, 101.07 0.96, 129.54 0.46 M130 -0.4 C129.1 4.69, 128.33 6.66, 128.34 11.52 M129.84 0.24 C130.09 4.86, 129.42 8.75, 129.14 12.55 M129.93 13.01 C85.27 12.41, 41.29 13.73, -1.26 11.89 M130.05 11.81 C96.98 12.32, 65.02 11.88, -0.85 12.2 M-0.24 12.26 C0.52 8.6, 0.73 2.86, -0.56 0.16 M0.61 12.37 C-0.32 8.24, -0.05 2.83, 0.2 0.04" stroke="#000000" stroke-width="1" fill="none"></path></g><g stroke-linecap="round" transform="translate(88.7765200568092 59.214563483680394) rotate(0 2.5510026540845274 2.5510026540845416)"><path d="M5.1 2.55 C5.1 2.7, 5.09 2.85, 5.06 2.99 C5.04 3.14, 5 3.28, 4.95 3.42 C4.9 3.56, 4.83 3.7, 4.76 3.83 C4.69 3.95, 4.6 4.08, 4.51 4.19 C4.41 4.3, 4.3 4.41, 4.19 4.51 C4.08 4.6, 3.95 4.69, 3.83 4.76 C3.7 4.83, 3.56 4.9, 3.42 4.95 C3.28 5, 3.14 5.04, 2.99 5.06 C2.85 5.09, 2.7 5.1, 2.55 5.1 C2.4 5.1, 2.25 5.09, 2.11 5.06 C1.96 5.04, 1.82 5, 1.68 4.95 C1.54 4.9, 1.4 4.83, 1.28 4.76 C1.15 4.69, 1.02 4.6, 0.91 4.51 C0.8 4.41, 0.69 4.3, 0.6 4.19 C0.5 4.08, 0.42 3.95, 0.34 3.83 C0.27 3.7, 0.2 3.56, 0.15 3.42 C0.1 3.28, 0.06 3.14, 0.04 2.99 C0.01 2.85, 0 2.7, 0 2.55 C0 2.4, 0.01 2.25, 0.04 2.11 C0.06 1.96, 0.1 1.82, 0.15 1.68 C0.2 1.54, 0.27 1.4, 0.34 1.28 C0.42 1.15, 0.5 1.02, 0.6 0.91 C0.69 0.8, 0.8 0.69, 0.91 0.6 C1.02 0.5, 1.15 0.42, 1.28 0.34 C1.4 0.27, 1.54 0.2, 1.68 0.15 C1.82 0.1, 1.96 0.06, 2.11 0.04 C2.25 0.01, 2.4 0, 2.55 0 C2.7 0, 2.85 0.01, 2.99 0.04 C3.14 0.06, 3.28 0.1, 3.42 0.15 C3.56 0.2, 3.7 0.27, 3.83 0.34 C3.95 0.42, 4.08 0.5, 4.19 0.6 C4.3 0.69, 4.41 0.8, 4.51 0.91 C4.6 1.02, 4.69 1.15, 4.76 1.28 C4.83 1.4, 4.9 1.54, 4.95 1.68 C5 1.82, 5.04 1.96, 5.06 2.11 C5.09 2.25, 5.1 2.48, 5.1 2.55 C5.11 2.62, 5.11 2.48, 5.1 2.55" stroke="none" stroke-width="0" fill="#fa5252"></path><path d="M5.1 2.55 C5.1 2.7, 5.09 2.85, 5.06 2.99 C5.04 3.14, 5 3.28, 4.95 3.42 C4.9 3.56, 4.83 3.7, 4.76 3.83 C4.69 3.95, 4.6 4.08, 4.51 4.19 C4.41 4.3, 4.3 4.41, 4.19 4.51 C4.08 4.6, 3.95 4.69, 3.83 4.76 C3.7 4.83, 3.56 4.9, 3.42 4.95 C3.28 5, 3.14 5.04, 2.99 5.06 C2.85 5.09, 2.7 5.1, 2.55 5.1 C2.4 5.1, 2.25 5.09, 2.11 5.06 C1.96 5.04, 1.82 5, 1.68 4.95 C1.54 4.9, 1.4 4.83, 1.28 4.76 C1.15 4.69, 1.02 4.6, 0.91 4.51 C0.8 4.41, 0.69 4.3, 0.6 4.19 C0.5 4.08, 0.42 3.95, 0.34 3.83 C0.27 3.7, 0.2 3.56, 0.15 3.42 C0.1 3.28, 0.06 3.14, 0.04 2.99 C0.01 2.85, 0 2.7, 0 2.55 C0 2.4, 0.01 2.25, 0.04 2.11 C0.06 1.96, 0.1 1.82, 0.15 1.68 C0.2 1.54, 0.27 1.4, 0.34 1.28 C0.42 1.15, 0.5 1.02, 0.6 0.91 C0.69 0.8, 0.8 0.69, 0.91 0.6 C1.02 0.5, 1.15 0.42, 1.28 0.34 C1.4 0.27, 1.54 0.2, 1.68 0.15 C1.82 0.1, 1.96 0.06, 2.11 0.04 C2.25 0.01, 2.4 0, 2.55 0 C2.7 0, 2.85 0.01, 2.99 0.04 C3.14 0.06, 3.28 0.1, 3.42 0.15 C3.56 0.2, 3.7 0.27, 3.83 0.34 C3.95 0.42, 4.08 0.5, 4.19 0.6 C4.3 0.69, 4.41 0.8, 4.51 0.91 C4.6 1.02, 4.69 1.15, 4.76 1.28 C4.83 1.4, 4.9 1.54, 4.95 1.68 C5 1.82, 5.04 1.96, 5.06 2.11 C5.09 2.25, 5.1 2.48, 5.1 2.55 C5.11 2.62, 5.11 2.48, 5.1 2.55" stroke="#000000" stroke-width="1" fill="none"></path></g><g stroke-linecap="round" transform="translate(99.24449619573761 59.214563483680394) rotate(0 2.5510026540845274 2.5510026540845416)"><path d="M5.1 2.55 C5.1 2.7, 5.09 2.85, 5.06 2.99 C5.04 3.14, 5 3.28, 4.95 3.42 C4.9 3.56, 4.83 3.7, 4.76 3.83 C4.69 3.95, 4.6 4.08, 4.51 4.19 C4.41 4.3, 4.3 4.41, 4.19 4.51 C4.08 4.6, 3.95 4.69, 3.83 4.76 C3.7 4.83, 3.56 4.9, 3.42 4.95 C3.28 5, 3.14 5.04, 2.99 5.06 C2.85 5.09, 2.7 5.1, 2.55 5.1 C2.4 5.1, 2.25 5.09, 2.11 5.06 C1.96 5.04, 1.82 5, 1.68 4.95 C1.54 4.9, 1.4 4.83, 1.28 4.76 C1.15 4.69, 1.02 4.6, 0.91 4.51 C0.8 4.41, 0.69 4.3, 0.6 4.19 C0.5 4.08, 0.42 3.95, 0.34 3.83 C0.27 3.7, 0.2 3.56, 0.15 3.42 C0.1 3.28, 0.06 3.14, 0.04 2.99 C0.01 2.85, 0 2.7, 0 2.55 C0 2.4, 0.01 2.25, 0.04 2.11 C0.06 1.96, 0.1 1.82, 0.15 1.68 C0.2 1.54, 0.27 1.4, 0.34 1.28 C0.42 1.15, 0.5 1.02, 0.6 0.91 C0.69 0.8, 0.8 0.69, 0.91 0.6 C1.02 0.5, 1.15 0.42, 1.28 0.34 C1.4 0.27, 1.54 0.2, 1.68 0.15 C1.82 0.1, 1.96 0.06, 2.11 0.04 C2.25 0.01, 2.4 0, 2.55 0 C2.7 0, 2.85 0.01, 2.99 0.04 C3.14 0.06, 3.28 0.1, 3.42 0.15 C3.56 0.2, 3.7 0.27, 3.83 0.34 C3.95 0.42, 4.08 0.5, 4.19 0.6 C4.3 0.69, 4.41 0.8, 4.51 0.91 C4.6 1.02, 4.69 1.15, 4.76 1.28 C4.83 1.4, 4.9 1.54, 4.95 1.68 C5 1.82, 5.04 1.96, 5.06 2.11 C5.09 2.25, 5.1 2.48, 5.1 2.55 C5.11 2.62, 5.11 2.48, 5.1 2.55" stroke="none" stroke-width="0" fill="#fab005"></path><path d="M5.1 2.55 C5.1 2.7, 5.09 2.85, 5.06 2.99 C5.04 3.14, 5 3.28, 4.95 3.42 C4.9 3.56, 4.83 3.7, 4.76 3.83 C4.69 3.95, 4.6 4.08, 4.51 4.19 C4.41 4.3, 4.3 4.41, 4.19 4.51 C4.08 4.6, 3.95 4.69, 3.83 4.76 C3.7 4.83, 3.56 4.9, 3.42 4.95 C3.28 5, 3.14 5.04, 2.99 5.06 C2.85 5.09, 2.7 5.1, 2.55 5.1 C2.4 5.1, 2.25 5.09, 2.11 5.06 C1.96 5.04, 1.82 5, 1.68 4.95 C1.54 4.9, 1.4 4.83, 1.28 4.76 C1.15 4.69, 1.02 4.6, 0.91 4.51 C0.8 4.41, 0.69 4.3, 0.6 4.19 C0.5 4.08, 0.42 3.95, 0.34 3.83 C0.27 3.7, 0.2 3.56, 0.15 3.42 C0.1 3.28, 0.06 3.14, 0.04 2.99 C0.01 2.85, 0 2.7, 0 2.55 C0 2.4, 0.01 2.25, 0.04 2.11 C0.06 1.96, 0.1 1.82, 0.15 1.68 C0.2 1.54, 0.27 1.4, 0.34 1.28 C0.42 1.15, 0.5 1.02, 0.6 0.91 C0.69 0.8, 0.8 0.69, 0.91 0.6 C1.02 0.5, 1.15 0.42, 1.28 0.34 C1.4 0.27, 1.54 0.2, 1.68 0.15 C1.82 0.1, 1.96 0.06, 2.11 0.04 C2.25 0.01, 2.4 0, 2.55 0 C2.7 0, 2.85 0.01, 2.99 0.04 C3.14 0.06, 3.28 0.1, 3.42 0.15 C3.56 0.2, 3.7 0.27, 3.83 0.34 C3.95 0.42, 4.08 0.5, 4.19 0.6 C4.3 0.69, 4.41 0.8, 4.51 0.91 C4.6 1.02, 4.69 1.15, 4.76 1.28 C4.83 1.4, 4.9 1.54, 4.95 1.68 C5 1.82, 5.04 1.96, 5.06 2.11 C5.09 2.25, 5.1 2.48, 5.1 2.55 C5.11 2.62, 5.11 2.48, 5.1 2.55" stroke="#000000" stroke-width="1" fill="none"></path></g><g stroke-linecap="round" transform="translate(110.1722090938606 59.67430024289078) rotate(0 2.5510026540845274 2.5510026540845416)"><path d="M5.1 2.55 C5.1 2.7, 5.09 2.85, 5.06 2.99 C5.04 3.14, 5 3.28, 4.95 3.42 C4.9 3.56, 4.83 3.7, 4.76 3.83 C4.69 3.95, 4.6 4.08, 4.51 4.19 C4.41 4.3, 4.3 4.41, 4.19 4.51 C4.08 4.6, 3.95 4.69, 3.83 4.76 C3.7 4.83, 3.56 4.9, 3.42 4.95 C3.28 5, 3.14 5.04, 2.99 5.06 C2.85 5.09, 2.7 5.1, 2.55 5.1 C2.4 5.1, 2.25 5.09, 2.11 5.06 C1.96 5.04, 1.82 5, 1.68 4.95 C1.54 4.9, 1.4 4.83, 1.28 4.76 C1.15 4.69, 1.02 4.6, 0.91 4.51 C0.8 4.41, 0.69 4.3, 0.6 4.19 C0.5 4.08, 0.42 3.95, 0.34 3.83 C0.27 3.7, 0.2 3.56, 0.15 3.42 C0.1 3.28, 0.06 3.14, 0.04 2.99 C0.01 2.85, 0 2.7, 0 2.55 C0 2.4, 0.01 2.25, 0.04 2.11 C0.06 1.96, 0.1 1.82, 0.15 1.68 C0.2 1.54, 0.27 1.4, 0.34 1.28 C0.42 1.15, 0.5 1.02, 0.6 0.91 C0.69 0.8, 0.8 0.69, 0.91 0.6 C1.02 0.5, 1.15 0.42, 1.28 0.34 C1.4 0.27, 1.54 0.2, 1.68 0.15 C1.82 0.1, 1.96 0.06, 2.11 0.04 C2.25 0.01, 2.4 0, 2.55 0 C2.7 0, 2.85 0.01, 2.99 0.04 C3.14 0.06, 3.28 0.1, 3.42 0.15 C3.56 0.2, 3.7 0.27, 3.83 0.34 C3.95 0.42, 4.08 0.5, 4.19 0.6 C4.3 0.69, 4.41 0.8, 4.51 0.91 C4.6 1.02, 4.69 1.15, 4.76 1.28 C4.83 1.4, 4.9 1.54, 4.95 1.68 C5 1.82, 5.04 1.96, 5.06 2.11 C5.09 2.25, 5.1 2.48, 5.1 2.55 C5.11 2.62, 5.11 2.48, 5.1 2.55" stroke="none" stroke-width="0" fill="#40c057"></path><path d="M5.1 2.55 C5.1 2.7, 5.09 2.85, 5.06 2.99 C5.04 3.14, 5 3.28, 4.95 3.42 C4.9 3.56, 4.83 3.7, 4.76 3.83 C4.69 3.95, 4.6 4.08, 4.51 4.19 C4.41 4.3, 4.3 4.41, 4.19 4.51 C4.08 4.6, 3.95 4.69, 3.83 4.76 C3.7 4.83, 3.56 4.9, 3.42 4.95 C3.28 5, 3.14 5.04, 2.99 5.06 C2.85 5.09, 2.7 5.1, 2.55 5.1 C2.4 5.1, 2.25 5.09, 2.11 5.06 C1.96 5.04, 1.82 5, 1.68 4.95 C1.54 4.9, 1.4 4.83, 1.28 4.76 C1.15 4.69, 1.02 4.6, 0.91 4.51 C0.8 4.41, 0.69 4.3, 0.6 4.19 C0.5 4.08, 0.42 3.95, 0.34 3.83 C0.27 3.7, 0.2 3.56, 0.15 3.42 C0.1 3.28, 0.06 3.14, 0.04 2.99 C0.01 2.85, 0 2.7, 0 2.55 C0 2.4, 0.01 2.25, 0.04 2.11 C0.06 1.96, 0.1 1.82, 0.15 1.68 C0.2 1.54, 0.27 1.4, 0.34 1.28 C0.42 1.15, 0.5 1.02, 0.6 0.91 C0.69 0.8, 0.8 0.69, 0.91 0.6 C1.02 0.5, 1.15 0.42, 1.28 0.34 C1.4 0.27, 1.54 0.2, 1.68 0.15 C1.82 0.1, 1.96 0.06, 2.11 0.04 C2.25 0.01, 2.4 0, 2.55 0 C2.7 0, 2.85 0.01, 2.99 0.04 C3.14 0.06, 3.28 0.1, 3.42 0.15 C3.56 0.2, 3.7 0.27, 3.83 0.34 C3.95 0.42, 4.08 0.5, 4.19 0.6 C4.3 0.69, 4.41 0.8, 4.51 0.91 C4.6 1.02, 4.69 1.15, 4.76 1.28 C4.83 1.4, 4.9 1.54, 4.95 1.68 C5 1.82, 5.04 1.96, 5.06 2.11 C5.09 2.25, 5.1 2.48, 5.1 2.55 C5.11 2.62, 5.11 2.48, 5.1 2.55" stroke="#000000" stroke-width="1" fill="none"></path></g><g transform="translate(119.3505513701216 79.10100115501717) rotate(0 5.480869157068355 8.906412380235992)"><text x="0" y="11.812824760471983" font-family="Virgil, Segoe UI Emoji" font-size="13.70217289267076px" fill="#228be6" text-anchor="start" style="white-space: pre;" direction="ltr">G</text></g><g transform="translate(132.36761561815933 79.10100115501717) rotate(0 3.7680975454844656 8.906412380235992)"><text x="0" y="11.812824760471983" font-family="Virgil, Segoe UI Emoji" font-size="13.702172892670754px" fill="#d9480f" text-anchor="start" style="white-space: pre;" direction="ltr">o</text></g><g transform="translate(142.64424528766244 79.10100115501717) rotate(0 3.7680975454844656 8.906412380235992)"><text x="0" y="11.812824760471983" font-family="Virgil, Segoe UI Emoji" font-size="13.702172892670754px" fill="#fab005" text-anchor="start" style="white-space: pre;" direction="ltr">o</text></g><g transform="translate(152.2357663125315 79.10100115501717) rotate(0 3.425543223167665 8.906412380235992)"><text x="0" y="11.812824760471983" font-family="Virgil, Segoe UI Emoji" font-size="13.702172892670756px" fill="#228be6" text-anchor="start" style="white-space: pre;" direction="ltr">g</text></g><g transform="translate(160.4570700481338 79.10100115501717) rotate(0 1.7127716115838894 8.906412380235992)"><text x="0" y="11.812824760471983" font-family="Virgil, Segoe UI Emoji" font-size="13.702172892670756px" fill="#5c940d" text-anchor="start" style="white-space: pre;" direction="ltr">l</text></g><g transform="translate(165.9379392052017 79.10100115501717) rotate(0 3.7680975454844656 8.906412380235992)"><text x="0" y="11.812824760471983" font-family="Virgil, Segoe UI Emoji" font-size="13.702172892670754px" fill="#d9480f" text-anchor="start" style="white-space: pre;" direction="ltr">e</text></g><g stroke-linecap="round" transform="translate(106.25736393934835 100.59057564168887) rotate(0 41.943873688119766 6.18120243824923)"><path d="M3.09 0 M3.09 0 C18.43 0.49, 39.42 2.7, 80.8 0 M3.09 0 C19.68 0.71, 36.09 0.21, 80.8 0 M80.8 0 C81.33 0.66, 83.26 0.28, 83.89 3.09 M80.8 0 C85.03 -2.25, 83.33 -1.22, 83.89 3.09 M83.89 3.09 C83.84 4.62, 84.16 6.1, 83.89 9.27 M83.89 3.09 C83.65 5.03, 84.02 7.26, 83.89 9.27 M83.89 9.27 C82.41 11.68, 83.15 13.06, 80.8 12.36 M83.89 9.27 C84.64 13.32, 85.13 10.92, 80.8 12.36 M80.8 12.36 C60.68 12.64, 38.79 10.83, 3.09 12.36 M80.8 12.36 C59.7 11.2, 40.96 12.26, 3.09 12.36 M3.09 12.36 C0.19 11.98, -0.71 12.26, 0 9.27 M3.09 12.36 C2.01 13.81, -0.96 10.32, 0 9.27 M0 9.27 C0.47 7.93, -0.39 5.19, 0 3.09 M0 9.27 C0.09 6.97, 0.14 4.71, 0 3.09 M0 3.09 C-1.95 3.01, 1.09 1.33, 3.09 0 M0 3.09 C-1.24 1.25, 2.09 -0.87, 3.09 0" stroke="#000000" stroke-width="1" fill="none"></path></g><g stroke-linecap="round" transform="translate(179.99027873846285 103.68117686081331) rotate(0 2.4494459737657053 2.105664082710831)"><path d="M3.44 -0.14 C3.74 0.23, 4.42 1.19, 4.61 1.64 C4.8 2.09, 4.81 2.16, 4.56 2.57 C4.32 2.99, 3.56 3.93, 3.12 4.14 C2.69 4.35, 2.2 4.08, 1.96 3.83 C1.72 3.58, 2.06 3.05, 1.69 2.64 C1.33 2.22, 0.14 1.51, -0.23 1.34 C-0.6 1.17, -0.89 1.85, -0.52 1.61 C-0.15 1.38, 1.25 0.11, 2.01 -0.06 C2.77 -0.22, 3.62 0.52, 4.04 0.63 C4.46 0.75, 4.66 0.85, 4.52 0.65 M2.27 -0.99 C2.83 -1.24, 3.08 -0.08, 3.56 0.35 C4.03 0.77, 4.67 0.95, 5.1 1.55 C5.53 2.15, 6.5 3.7, 6.16 3.96 C5.82 4.22, 3.83 3.28, 3.08 3.1 C2.33 2.93, 2.04 2.69, 1.67 2.91 C1.3 3.13, 1.36 4.61, 0.86 4.43 C0.36 4.25, -1.13 2.44, -1.32 1.82 C-1.5 1.21, -0.54 1.22, -0.26 0.72 C0.02 0.23, 0.18 -1.23, 0.37 -1.15 C0.55 -1.08, 0.51 1.03, 0.86 1.17" stroke="#000000" stroke-width="1" fill="none"></path></g><g stroke-linecap="round"><g transform="translate(184.78263700571983 107.8550378257957) rotate(0 0.6847197948048915 1.933421110701076)"><path d="M-0.3 2.35 C1 2.94, 4.82 0.79, 5.28 0.77 M-3.91 1.16 C-2.5 2.27, 3.8 2.47, 4.56 3.09" stroke="#000000" stroke-width="1" fill="none"></path></g></g><g stroke-linecap="round"><g transform="translate(219.8454501215706 100.73128334245814) rotate(0 83.590936361849 2.968983139273405)"><path d="M0.76 1.09 C28.71 1.83, 139.86 4.82, 167.49 5.33 M-0.31 0.61 C27.59 0.9, 139.35 2.66, 167.03 3.38" stroke="#000000" stroke-width="1" fill="none"></path></g><g transform="translate(219.8454501215706 100.73128334245814) rotate(0 83.590936361849 2.968983139273405)"><path d="M140.45 14.64 C147.14 10.13, 153.1 7.25, 166.58 2.23 M139.49 13.37 C145.36 11.01, 153.49 8, 168 2.44" stroke="#000000" stroke-width="1" fill="none"></path></g><g transform="translate(219.8454501215706 100.73128334245814) rotate(0 83.590936361849 2.968983139273405)"><path d="M140.86 -5.88 C147.59 -4.6, 153.42 -1.69, 166.58 2.23 M139.9 -7.15 C145.82 -4.13, 153.85 -1.76, 168 2.44" stroke="#000000" stroke-width="1" fill="none"></path></g></g><g transform="translate(257.58354317174644 50.91688065890952) rotate(0 41.5 25)"><text x="0" y="18" font-family="Virgil, Segoe UI Emoji" font-size="20px" fill="#000000" text-anchor="start" style="white-space: pre;" direction="ltr">Write to</text><text x="0" y="43" font-family="Virgil, Segoe UI Emoji" font-size="20px" fill="#000000" text-anchor="start" style="white-space: pre;" direction="ltr">disk</text></g><g stroke-linecap="round"><g transform="translate(157.76248890615693 192.5398618257223) rotate(0 119.65530082604619 94.15410759208194)"><path d="M-0.64 0.93 C39.31 32.06, 200.04 156.93, 239.95 187.94 M1.23 0.37 C41.09 31.66, 200.13 154.88, 239.6 186.18" stroke="#000000" stroke-width="1" fill="none"></path></g><g transform="translate(157.76248890615693 192.5398618257223) rotate(0 119.65530082604619 94.15410759208194)"><path d="M212.62 178.77 C221.49 180.01, 229.1 181.28, 238.43 186.87 M211.99 176.11 C220.2 179.76, 229.62 182.58, 240.16 186.93" stroke="#000000" stroke-width="1" fill="none"></path></g><g transform="translate(157.76248890615693 192.5398618257223) rotate(0 119.65530082604619 94.15410759208194)"><path d="M225.27 162.62 C230.23 168.98, 233.78 175.44, 238.43 186.87 M224.64 159.95 C228.91 168.69, 234.32 176.62, 240.16 186.93" stroke="#000000" stroke-width="1" fill="none"></path></g></g><g stroke-linecap="round"><g transform="translate(302.7643898230531 408.31803794979845) rotate(0 -100.85124640656272 -5.034360393515669)"><path d="M0.73 -0.13 C-33.07 -1.76, -168.21 -8.33, -202.05 -9.94 M-0.35 -1.24 C-34.27 -2.74, -168.72 -7.66, -202.43 -8.94" stroke="#000000" stroke-width="1" fill="none"></path></g><g transform="translate(302.7643898230531 408.31803794979845) rotate(0 -100.85124640656272 -5.034360393515669)"><path d="M-174.09 -16.34 C-185.82 -13.25, -195.78 -10.59, -200.73 -9.66 M-173.26 -18.96 C-183.7 -14.98, -195.1 -11.37, -202.54 -9.01" stroke="#000000" stroke-width="1" fill="none"></path></g><g transform="translate(302.7643898230531 408.31803794979845) rotate(0 -100.85124640656272 -5.034360393515669)"><path d="M-174.86 4.17 C-186.28 -0.1, -195.97 -4.78, -200.73 -9.66 M-174.02 1.55 C-184.33 -1.86, -195.46 -5.63, -202.54 -9.01" stroke="#000000" stroke-width="1" fill="none"></path></g></g></svg>